<svg width="24" height="24" viewBox="0 0 24 24" fill="none" xmlns="http://www.w3.org/2000/svg">
  <circle cx="12" cy="12" r="9" fill="white" opacity="0.9"/>
  <path d="M12 2C6.48 2 2 6.48 2 12s4.48 10 10 10c1.39 0 2.5-1.11 2.5-2.5 0-.61-.23-1.16-.59-1.59-.36-.42-.59-.98-.59-1.59 0-1.39 1.11-2.5 2.5-2.5h2.92C20.49 16.32 22 14.17 22 12 22 6.48 17.52 2 12 2Z" fill="currentColor" opacity="0.7"/>
  <circle cx="6.5" cy="11.5" r="1.5" fill="#FF6B6B"/>
  <circle cx="9.5" cy="7.5" r="1.5" fill="#4ECDC4"/>
  <circle cx="14.5" cy="7.5" r="1.5" fill="#45B7D1"/>
  <circle cx="17.5" cy="11.5" r="1.5" fill="#96CEB4"/>
</svg>